<svg width="23" height="18" viewBox="0 0 23 18" fill="none" xmlns="http://www.w3.org/2000/svg">
<path d="M8.30796 0.575773L4.15494 6.16945L4.00502 6.37137L3.75353 6.37139L1.18685 6.37158H1.18681C1.13512 6.37158 1.07168 6.40097 1.03146 6.47499L1.0313 6.47529C0.989559 6.55199 0.989579 6.65016 1.03128 6.72677L1.03152 6.72722C1.0718 6.80138 1.13522 6.8307 1.18681 6.8307H2.21034H2.63866L2.70441 7.25394L3.98383 15.4895C3.98388 15.4898 3.98393 15.4901 3.98398 15.4904C4.07488 16.0601 4.35163 16.5716 4.75808 16.9371L4.75815 16.9372C5.16408 17.3023 5.67338 17.4991 6.19481 17.5H16.8121C17.3336 17.4991 17.8427 17.3023 18.2489 16.9371L8.30796 0.575773ZM8.30796 0.575773C8.3545 0.513176 8.41723 0.493811 8.46864 0.501756L8.545 0.00762103M8.30796 0.575773L8.9849 1.18222C9.137 0.977621 9.1748 0.702311 9.0841 0.460001C8.9934 0.217691 8.7878 0.045341 8.545 0.00762103M8.545 0.00762103L8.46824 0.501694C8.5215 0.509968 8.58445 0.551439 8.61583 0.635281C8.6481 0.721492 8.63261 0.818033 8.58363 0.883918L8.58301 0.884752L5.1122 5.57388L4.52193 6.37135H5.51409H17.7653H18.759L18.1668 5.57337L14.6868 0.884244L14.6866 0.883909C14.6376 0.818042 14.6221 0.721497 14.6544 0.635281C14.6857 0.551512 14.7486 0.510006 14.8021 0.501704L14.7254 0.00762103M8.545 0.00762103L20.9389 6.37158M20.9389 6.37158H19.5169H19.2654L19.1154 6.16964L14.9624 0.575953C14.9624 0.575908 14.9624 0.575862 14.9623 0.575816C14.9156 0.513106 14.8529 0.493858 14.8018 0.501756L14.7254 0.00762103M20.9389 6.37158L20.9318 6.38346H21.8131C21.865 6.38346 21.9283 6.4128 21.9686 6.48698L21.9687 6.48718C22.0104 6.5639 22.0105 6.66227 21.9687 6.7391L21.9686 6.73924C21.9284 6.81332 21.8648 6.8428 21.8131 6.8428H20.7897H20.3611L20.2956 7.26633L19.023 15.4895C19.023 15.4897 19.0229 15.49 19.0229 15.4902C18.932 16.06 18.6553 16.5716 18.2489 16.9371L20.9389 6.37158ZM14.7254 0.00762103C14.9682 -0.029899 15.2116 0.073051 15.3637 0.277651L14.7254 0.00762103ZM18.6625 15.4012L18.6621 15.4036C18.5906 15.8527 18.3709 16.2666 18.0342 16.5686L18.6625 15.4012ZM18.6625 15.4012L19.8943 7.41189L19.9831 6.8357H19.4001H3.60242H3.01909L3.1083 7.41217L4.34469 15.4015L4.34503 15.4036M18.6625 15.4012L4.34503 15.4036M4.34503 15.4036C4.41655 15.8527 4.6363 16.2667 4.97299 16.5686L4.34503 15.4036ZM6.19429 17.0411H16.8128L4.97315 16.5688C5.31044 16.8714 5.74281 17.0412 6.19414 17.0411C6.19419 17.0411 6.19424 17.0411 6.19429 17.0411ZM16.813 17.0411C17.2645 17.0412 17.6967 16.8714 18.034 16.5688L16.813 17.0411Z" fill="#08091C" stroke="white"/>
</svg>
