<svg width="24" height="24" viewBox="0 0 24 24" fill="none" xmlns="http://www.w3.org/2000/svg">
<path d="M0 4C0 1.79086 1.79086 0 4 0H20C22.2091 0 24 1.79086 24 4V20C24 22.2091 22.2091 24 20 24H4C1.79086 24 0 22.2091 0 20V4Z" fill="#08091C"/>
<path d="M12.7491 8.666C16.8094 5.81933 11.91 5.97 12.8486 4C9.60771 6.54467 14.0571 6.60133 12.7491 8.666ZM10.3663 8.66667C13.0697 6.78333 9.79714 6.59867 10.4409 5.26733C8.17629 7.12533 11.2551 7.17333 10.3663 8.66667ZM18 10.412C17.2551 10.412 16.3191 9.948 16.3191 9.33333H7.71429C7.71429 9.94733 6.74571 10.412 6 10.412V11.3333H18V10.412ZM6.85714 12L8.58943 20H15.4114L17.1429 12H6.85714Z" fill="white"/>
</svg>
