<svg width="24" height="24" viewBox="0 0 24 24" fill="none" xmlns="http://www.w3.org/2000/svg">
<path d="M0 4C0 1.79086 1.79086 0 4 0H20C22.2091 0 24 1.79086 24 4V20C24 22.2091 22.2091 24 20 24H4C1.79086 24 0 22.2091 0 20V4Z" fill="#08091C"/>
<path fill-rule="evenodd" clip-rule="evenodd" d="M7.33333 17.3333H6.66667C6.29867 17.3333 6 16.9351 6 16.4444V14.6667H14V6.66667H17.1113C17.856 6.66667 18.178 7.17867 18.402 7.65067C18.798 8.48622 19.426 9.81244 19.808 10.6533C19.9333 10.9307 20 11.2489 20 11.5733V15.5556C20 16.552 19.5147 17.3333 18.6667 17.3333H18C18 18.8053 17.104 20 16 20C14.896 20 14 18.8053 14 17.3333H11.3333C11.3333 18.8053 10.4373 20 9.33333 20C8.22933 20 7.33333 18.8053 7.33333 17.3333ZM9.33333 16.2667C9.77467 16.2667 10.1333 16.7449 10.1333 17.3333C10.1333 17.9218 9.77467 18.4 9.33333 18.4C8.892 18.4 8.53333 17.9218 8.53333 17.3333C8.53333 16.7449 8.892 16.2667 9.33333 16.2667ZM16 16.2667C16.4413 16.2667 16.8 16.7449 16.8 17.3333C16.8 17.9218 16.4413 18.4 16 18.4C15.5587 18.4 15.2 17.9218 15.2 17.3333C15.2 16.7449 15.5587 16.2667 16 16.2667ZM9.33333 8.44444H4V6.66667H9.33333V5.77778H6V4.88889C6 4.39822 6.29867 4 6.66667 4H12.6667C13.0347 4 13.3333 4.39822 13.3333 4.88889V13.7778H6V11.1111H4.66667V9.33333H9.33333V8.44444ZM15.3333 8.44444V11.1111H18.4767L17.5253 8.89244C17.4067 8.61511 17.186 8.44444 16.9467 8.44444H15.3333Z" fill="white"/>
</svg>
