<svg width="24" height="24" viewBox="0 0 24 24" fill="none" xmlns="http://www.w3.org/2000/svg">
<path d="M0 4C0 1.79086 1.79086 0 4 0H20C22.2091 0 24 1.79086 24 4V20C24 22.2091 22.2091 24 20 24H4C1.79086 24 0 22.2091 0 20V4Z" fill="#08091C"/>
<path fill-rule="evenodd" clip-rule="evenodd" d="M12.6793 20H6.01267L6.01133 12.7156L11.994 6.90545L18.0013 12.7156L18.0127 20H16.0127V14.9091H12.6793V20ZM8.67933 14.9091H7.346V17.0909H8.67933V14.9091ZM11.346 14.9091H10.0127V17.0909H11.346V14.9091ZM12.0127 4L20 11.7324L19.1147 12.8182L12 5.92291L4.88533 12.8182L4 11.7324L12.0127 4Z" fill="white"/>
</svg>
