<svg width="16" height="16" viewBox="0 0 16 16" fill="none" xmlns="http://www.w3.org/2000/svg">
<g clip-path="url(#clip0_6940_8486)">
<path fill-rule="evenodd" clip-rule="evenodd" d="M8.00065 1.83398C4.59489 1.83398 1.83398 4.59489 1.83398 8.00065C1.83398 11.4064 4.59489 14.1673 8.00065 14.1673C11.4064 14.1673 14.1673 11.4064 14.1673 8.00065C14.1673 4.59489 11.4064 1.83398 8.00065 1.83398ZM0.833984 8.00065C0.833984 4.04261 4.04261 0.833984 8.00065 0.833984C11.9587 0.833984 15.1673 4.04261 15.1673 8.00065C15.1673 11.9587 11.9587 15.1673 8.00065 15.1673C4.04261 15.1673 0.833984 11.9587 0.833984 8.00065ZM8.00049 7.50067C8.27663 7.50067 8.50049 7.72453 8.50049 8.00067V10.6673C8.50049 10.9435 8.27663 11.1673 8.00049 11.1673C7.72435 11.1673 7.50049 10.9435 7.50049 10.6673V8.00067C7.50049 7.72453 7.72435 7.50067 8.00049 7.50067ZM8.00049 4.58398C7.58627 4.58398 7.25049 4.91977 7.25049 5.33398C7.25049 5.7482 7.58627 6.08398 8.00049 6.08398H8.00715C8.42137 6.08398 8.75715 5.7482 8.75715 5.33398C8.75715 4.91977 8.42137 4.58398 8.00715 4.58398H8.00049Z" fill="#08091C" fill-opacity="0.4"/>
</g>
<defs>
<clipPath id="clip0_6940_8486">
<rect width="16" height="16" fill="white"/>
</clipPath>
</defs>
</svg>
