<svg width="16" height="16" viewBox="0 0 16 16" fill="none" xmlns="http://www.w3.org/2000/svg">
<path fill-rule="evenodd" clip-rule="evenodd" d="M8.00016 1.83398C4.59441 1.83398 1.8335 4.59489 1.8335 8.00065C1.8335 11.4064 4.59441 14.1673 8.00016 14.1673C11.4059 14.1673 14.1668 11.4064 14.1668 8.00065C14.1668 4.59489 11.4059 1.83398 8.00016 1.83398ZM0.833496 8.00065C0.833496 4.04261 4.04212 0.833984 8.00016 0.833984C11.9582 0.833984 15.1668 4.04261 15.1668 8.00065C15.1668 11.9587 11.9582 15.1673 8.00016 15.1673C4.04212 15.1673 0.833496 11.9587 0.833496 8.00065ZM8 7.50067C8.27614 7.50067 8.5 7.72453 8.5 8.00067V10.6673C8.5 10.9435 8.27614 11.1673 8 11.1673C7.72386 11.1673 7.5 10.9435 7.5 10.6673V8.00067C7.5 7.72453 7.72386 7.50067 8 7.50067ZM8 4.58398C7.58579 4.58398 7.25 4.91977 7.25 5.33398C7.25 5.7482 7.58579 6.08398 8 6.08398H8.00667C8.42088 6.08398 8.75667 5.7482 8.75667 5.33398C8.75667 4.91977 8.42088 4.58398 8.00667 4.58398H8Z" fill="#E53E3E"/>
</svg>
