<svg width="24" height="24" viewBox="0 0 24 24" fill="none" xmlns="http://www.w3.org/2000/svg">
<path d="M0 4C0 1.79086 1.79086 0 4 0H20C22.2091 0 24 1.79086 24 4V20C24 22.2091 22.2091 24 20 24H4C1.79086 24 0 22.2091 0 20V4Z" fill="#08091C"/>
<path d="M12.8 12L12.2496 9.33333H11.7624L11.2 12C10.7232 12.2313 10.4 12.656 10.4 13.1487C10.4 13.8847 11.1168 14.482 12 14.482C12.8832 14.482 13.6 13.8847 13.6 13.1487C13.6 12.656 13.2768 12.2313 12.8 12ZM12 6.66667C7.5824 6.66667 4 9.65133 4 13.3333C4 17.0153 7.5824 20 12 20C16.4176 20 20 17.0153 20 13.3333C20 9.65133 16.4176 6.66667 12 6.66667ZM12 18.6667C8.4712 18.6667 5.6 16.274 5.6 13.3333C5.6 10.3927 8.4712 8 12 8C15.5288 8 18.4 10.3927 18.4 13.3333C18.4 16.274 15.5288 18.6667 12 18.6667ZM10.4 5.454V4H13.6V5.454C12.4496 5.292 11.5264 5.29533 10.4 5.454ZM17.7432 6.938L18.8688 6L20 6.94267L18.9432 7.82333C18.5736 7.50067 18.172 7.206 17.7432 6.938ZM7.6 13.3333C7.6 13.5173 7.4208 13.6667 7.2 13.6667C6.9792 13.6667 6.8 13.5173 6.8 13.3333C6.8 13.1493 6.9792 13 7.2 13C7.4208 13 7.6 13.1493 7.6 13.3333ZM17.2 13.3333C17.2 13.5173 17.0208 13.6667 16.8 13.6667C16.5792 13.6667 16.4 13.5173 16.4 13.3333C16.4 13.1493 16.5792 13 16.8 13C17.0208 13 17.2 13.1493 17.2 13.3333ZM12.4 17.3333C12.4 17.5173 12.2208 17.6667 12 17.6667C11.7792 17.6667 11.6 17.5173 11.6 17.3333C11.6 17.1493 11.7792 17 12 17C12.2208 17 12.4 17.1493 12.4 17.3333ZM9.2 16C9.2 16.184 9.0208 16.3333 8.8 16.3333C8.5792 16.3333 8.4 16.184 8.4 16C8.4 15.816 8.5792 15.6667 8.8 15.6667C9.0208 15.6667 9.2 15.816 9.2 16ZM15.6 16C15.6 16.184 15.4208 16.3333 15.2 16.3333C14.9792 16.3333 14.8 16.184 14.8 16C14.8 15.816 14.9792 15.6667 15.2 15.6667C15.4208 15.6667 15.6 15.816 15.6 16ZM9.2 10C9.2 10.184 9.0208 10.3333 8.8 10.3333C8.5792 10.3333 8.4 10.184 8.4 10C8.4 9.816 8.5792 9.66667 8.8 9.66667C9.0208 9.66667 9.2 9.816 9.2 10ZM15.6 10C15.6 10.184 15.4208 10.3333 15.2 10.3333C14.9792 10.3333 14.8 10.184 14.8 10C14.8 9.816 14.9792 9.66667 15.2 9.66667C15.4208 9.66667 15.6 9.816 15.6 10Z" fill="white"/>
</svg>
