<svg width="19" height="20" viewBox="0 0 19 20" fill="none" xmlns="http://www.w3.org/2000/svg">
<path d="M1.01562 3.494H0.762625C0.349625 3.494 0.015625 3.159 0.015625 2.747C0.015625 2.335 0.349625 2 0.762625 2H6.01562V1C6.01562 0.465 6.48962 0 7.01562 0H11.0156C11.5416 0 12.0156 0.465 12.0156 1V2H17.2696C17.6816 2 18.0156 2.335 18.0156 2.747C18.0156 3.159 17.6816 3.494 17.2696 3.494H17.0156V18.929C17.0156 19.52 16.5676 20 16.0156 20C13.1426 20 4.88862 20 2.01562 20C1.46362 20 1.01562 19.52 1.01562 18.929V3.494ZM15.5156 3.494H2.51562V18.5H15.5156V3.494ZM11.2656 6C10.8516 6 10.5156 6.336 10.5156 6.75V15.25C10.5156 15.664 10.8516 16 11.2656 16C11.6796 16 12.0156 15.664 12.0156 15.25V6.75C12.0156 6.336 11.6796 6 11.2656 6ZM6.76562 6C6.35162 6 6.01562 6.336 6.01562 6.75V15.25C6.01562 15.664 6.35162 16 6.76562 16C7.17963 16 7.51562 15.664 7.51562 15.25V6.75C7.51562 6.336 7.17963 6 6.76562 6ZM10.5156 2V1.5H7.51562V2H10.5156Z" fill="black"/>
</svg>
