<svg width="22" height="18" viewBox="0 0 22 18" fill="none" xmlns="http://www.w3.org/2000/svg">
<path d="M21.3202 5.87158H19.0169L14.8637 0.277651V0.277462C14.7116 0.0728648 14.4682 -0.0299044 14.2254 0.00762333C13.9824 0.045337 13.7768 0.21769 13.6861 0.459998C13.5954 0.702307 13.6332 0.977634 13.7853 1.18222L17.2653 5.87135H5.01409L8.48488 1.18222C8.63701 0.97762 8.67482 0.702312 8.58411 0.459998C8.4934 0.21769 8.28784 0.0453394 8.04501 0.00762333C7.80216 -0.0299015 7.5588 0.0728696 7.40666 0.277462L3.25349 5.87139L0.686809 5.87158C0.441485 5.87158 0.214783 6.01055 0.0921297 6.23627C-0.0307099 6.46198 -0.0307099 6.74015 0.0921297 6.96582C0.214792 7.19173 0.44148 7.3307 0.686809 7.3307H1.71034L2.99005 15.5681C3.09815 16.2471 3.42886 16.8639 3.92378 17.3089C4.41853 17.7539 5.0457 17.9989 5.69396 18H16.3129C16.9613 17.9989 17.5883 17.7539 18.0832 17.3089C18.578 16.8639 18.9087 16.2471 19.0168 15.5681L20.2897 7.34277H21.3131C21.5586 7.34277 21.7854 7.20361 21.908 6.97789C22.0307 6.75217 22.0307 6.47401 21.908 6.24833C21.7853 6.02243 21.5587 5.88346 21.3131 5.88346L21.3202 5.87158ZM17.6683 15.325C17.6142 15.6651 17.4484 15.974 17.2002 16.1965C16.9521 16.4192 16.6379 16.5412 16.313 16.5411H5.69414C5.36946 16.5412 5.0551 16.4192 4.80693 16.1965C4.55877 15.974 4.39297 15.6651 4.33881 15.325L3.10242 7.33571H18.9001L17.6683 15.325Z" fill="#08091C"/>
</svg>
