<svg width="24" height="24" viewBox="0 0 24 24" fill="none" xmlns="http://www.w3.org/2000/svg">
<path d="M0 4C0 1.79086 1.79086 0 4 0H20C22.2091 0 24 1.79086 24 4V20C24 22.2091 22.2091 24 20 24H4C1.79086 24 0 22.2091 0 20V4Z" fill="#08091C"/>
<path fill-rule="evenodd" clip-rule="evenodd" d="M18.4457 20C17.7069 20 16.8948 19.621 16.8948 19.0008V13.3386C16.8948 13.3386 15.6838 13.3366 14.3457 13.3386C15.1744 8.6783 17.5519 4.01266 19.1607 4.01266C19.6226 4.01266 19.9915 4.25047 19.9946 4.57954C20.0049 5.50881 19.9977 15.6454 19.9956 19.0008C19.9956 19.5524 19.3013 20 18.4457 20ZM6.55797 11.7072C6.55797 11.2469 6.11057 11.0964 5.13516 10.5928C4.41498 10.2197 3.91901 9.6382 4.01097 9.04601C4.27135 7.35601 4.90164 4 4.90164 4H5.5216V7.99684H6.55797L6.78839 4H7.41558L7.59434 7.99684H8.6307L8.88076 4H9.46145L9.66707 7.99684H10.7034V4H11.2707C11.2707 4 11.9671 7.33403 12.2533 9.02935C12.3546 9.63021 11.8307 10.2231 11.094 10.5988C10.1134 11.099 9.66707 11.2429 9.66707 11.7106V18.9881C9.66707 19.5397 8.97168 19.9873 8.11201 19.9873C7.25336 19.9873 6.55797 19.5397 6.55797 18.9881V11.7072Z" fill="white"/>
</svg>
