<svg width="24" height="24" viewBox="0 0 24 24" fill="none" xmlns="http://www.w3.org/2000/svg">
<path d="M0 4C0 1.79086 1.79086 0 4 0H20C22.2091 0 24 1.79086 24 4V20C24 22.2091 22.2091 24 20 24H4C1.79086 24 0 22.2091 0 20V4Z" fill="#08091C"/>
<path d="M16 4C13.9013 4 12 5.702 12 7.80133C12 10.9227 15.1887 11.2527 16 16C16.8113 11.2527 20 10.9227 20 7.80133C20 5.702 18.0987 4 16 4ZM16 9.33333C15.2633 9.33333 14.6667 8.73667 14.6667 8C14.6667 7.26333 15.2633 6.66667 16 6.66667C16.7367 6.66667 17.3333 7.26333 17.3333 8C17.3333 8.73667 16.7367 9.33333 16 9.33333ZM8 7.33333C6.60067 7.33333 5.33333 8.468 5.33333 9.86733C5.33333 11.948 7.45867 12.168 8 15.3333C8.54133 12.168 10.6667 11.948 10.6667 9.86733C10.6667 8.468 9.39933 7.33333 8 7.33333ZM8 10.8887C7.50867 10.8887 7.11133 10.4907 7.11133 10C7.11133 9.50933 7.50867 9.11133 8 9.11133C8.49133 9.11133 8.88867 9.50867 8.88867 10C8.88867 10.4913 8.49133 10.8887 8 10.8887ZM12 14.7387L9.85667 14.02C10.1 13.5973 10.3747 13.268 10.6873 12.8953L12 13.3333L13.28 12.9067C13.5387 13.254 13.7827 13.6353 14.0007 14.0733L12 14.7387ZM20 20L15.5287 18.382L12 20L8.27933 18.382L4 20L6.41333 14.5707C6.61267 15.0773 6.78267 15.7547 6.81067 16.9593L6.51533 17.6233L8.31467 16.9427L11.5207 18.3367L12.0213 15.8533L12.5 18.3033L15.4693 16.942L17.5353 17.6893L17.228 16.986C17.2453 16.7247 17.2733 16.466 17.3153 16.2233C17.4113 15.6633 17.5453 15.1807 17.7053 14.7487L20 20Z" fill="white"/>
</svg>
